<svg width="18" height="16" viewBox="0 0 18 16" fill="none" xmlns="http://www.w3.org/2000/svg">
<path d="M16.634 13.5109C16.7385 13.7201 16.7385 14.0339 16.634 14.3476C16.5295 14.6613 16.2157 14.7659 16.0065 14.7659H1.99347C1.7844 14.7659 1.5752 14.6613 1.366 14.3476C1.26146 14.0339 1.26146 13.7201 1.366 13.5109L8.37254 1.58944C8.58174 1.17113 9.2092 1.17113 9.52293 1.69401L16.634 13.5109Z" fill="#EFDF92" stroke="#FFF8E7" stroke-width="0.941176" stroke-linecap="round" stroke-linejoin="round"/>
<path d="M16.8432 13.4061C17.0523 13.7199 17.0523 14.1381 16.8432 14.4519C16.634 14.7656 16.3203 14.9748 16.0065 14.9748H1.99347C1.67974 14.9748 1.366 14.7656 1.1568 14.3473C0.947733 14.0336 0.947733 13.6153 1.1568 13.3016L8.16333 1.37997C8.58173 0.857104 9.41827 0.857104 9.732 1.48454L16.8432 13.4061Z" stroke="#B2884D" stroke-width="0.54902"/>
<path d="M9.62868 5.2496H8.37375V10.5829H9.62868V5.2496Z" fill="#B3884D"/>
<path d="M9.62868 11.7331H8.37375V12.988H9.62868V11.7331Z" fill="#B3884D"/>
</svg>
