<svg width="16" height="16" viewBox="0 0 16 16" fill="none" xmlns="http://www.w3.org/2000/svg">
<path d="M8 16C12.4 16 16 12.4 16 8C16 3.6 12.4 0 8 0C3.6 0 0 3.6 0 8C0 12.4 3.6 16 8 16Z" fill="#E45F57"/>
<path d="M14.5 8C14.5 11.6 11.6 14.5 8 14.5C4.4 14.5 1.5 11.6 1.5 8C1.5 4.4 4.4 1.5 8 1.5C11.6 1.5 14.5 4.4 14.5 8Z" stroke="#F1A89B" stroke-width="0.375"/>
<path d="M8.79961 3.40039H7.09961V9.30039H8.79961V3.40039Z" fill="white"/>
<path d="M8.79961 10.9004H7.09961V12.6004H8.79961V10.9004Z" fill="white"/>
</svg>
