<svg width="17" height="15" viewBox="0 0 17 15" fill="none" xmlns="http://www.w3.org/2000/svg">
<path d="M2.02546 3.84732C3.03813 3.84732 3.84827 3.0372 3.84827 2.02453C3.84827 1.01187 3.03813 0.201752 2.02546 0.201752C1.0128 0.201752 0.202667 1.01187 0.202667 2.02453C0.202667 3.0372 1.0128 3.84732 2.02546 3.84732Z" fill="#EFDF92" stroke="#BE9058" stroke-width="0.227848"/>
<path d="M4.45584 12.0509C4.75958 11.6459 4.65837 11.0383 4.25331 10.7344C3.84824 10.4307 3.24063 10.5319 2.93677 10.9369L1.62037 12.8611C1.31664 13.266 1.41784 13.8736 1.8229 14.1775C2.22797 14.4812 2.83557 14.38 3.1393 13.975L4.45584 12.0509Z" fill="#9B9999"/>
<path d="M11.8484 3.84732C12.8611 3.84732 13.6712 3.0372 13.6712 2.02453C13.6712 1.01187 12.8611 0.201752 11.8484 0.201752C10.8357 0.201752 10.0256 1.01187 10.0256 2.02453C10.0256 3.0372 10.8357 3.84732 11.8484 3.84732Z" fill="#EFDF92" stroke="#BE9058" stroke-width="0.227848"/>
<path d="M6.88614 13.8735C10.7341 13.8735 13.7722 10.7341 13.7722 6.88609C13.7722 3.03798 10.6329 0 6.88614 0C3.038 0 0 3.13924 0 6.88609C0 10.7341 3.038 13.8735 6.88614 13.8735Z" fill="#579CEF"/>
<path d="M6.88572 12.0511C9.72119 12.0511 11.9491 9.8232 11.9491 6.98777C11.9491 4.15233 9.72119 1.92447 6.88572 1.92447C4.05038 1.92447 1.82251 4.15233 1.82251 6.98777C1.82251 9.722 4.05038 12.0511 6.88572 12.0511Z" fill="white"/>
<path d="M6.8864 7.89881C7.39281 7.89881 7.79773 7.49374 7.79773 6.98741C7.79773 6.48107 7.39281 6.07602 6.8864 6.07602C6.38014 6.07602 5.97507 6.48107 5.97507 6.98741C5.97507 7.39247 6.38014 7.89881 6.8864 7.89881Z" fill="#8E918C"/>
<path d="M7.29158 3.13847C7.29158 2.93593 7.08905 2.7334 6.88652 2.7334C6.68398 2.7334 6.48145 2.93593 6.48145 3.13847V6.48023C6.48145 6.68276 6.68398 6.8853 6.88652 6.8853C7.08905 6.8853 7.29158 6.68276 7.29158 6.48023V3.13847Z" fill="#8E918C"/>
<path d="M7.29158 3.13847C7.29158 2.93593 7.08905 2.7334 6.88652 2.7334C6.68398 2.7334 6.48145 2.93593 6.48145 3.13847V6.48023C6.48145 6.68276 6.68398 6.8853 6.88652 6.8853C7.08905 6.8853 7.29158 6.68276 7.29158 6.48023V3.13847Z" fill="#8E918C"/>
<path d="M7.29158 3.13847C7.29158 2.93593 7.08905 2.7334 6.88652 2.7334C6.68398 2.7334 6.48145 2.93593 6.48145 3.13847V6.48023C6.48145 6.68276 6.68398 6.8853 6.88652 6.8853C7.08905 6.8853 7.29158 6.68276 7.29158 6.48023V3.13847Z" fill="#8E918C"/>
<path d="M10.1264 7.29152C10.3289 7.29152 10.5315 7.08898 10.5315 6.88645C10.5315 6.68392 10.3289 6.48138 10.1264 6.48138H7.29093C7.0884 6.48138 6.88586 6.68392 6.88586 6.88645C6.88586 7.08898 7.0884 7.29152 7.29093 7.29152H10.1264Z" fill="#8E918C"/>
<path d="M15.7972 13.5688C15.7972 13.6702 15.7972 13.7714 15.6959 13.8727C15.5947 13.9739 15.3922 14.1764 15.2908 14.1764H5.67054C5.46801 14.1764 5.16428 13.6702 5.16428 13.5688C5.16428 13.4676 5.16427 13.3663 5.26547 13.2651L10.1263 5.06253C10.1263 4.96126 10.43 4.75873 10.5313 4.75873C10.6325 4.75873 10.7339 4.86 10.7339 4.86C10.7339 4.86 10.8351 4.96126 10.9364 5.06253C10.9364 5.06253 15.7972 13.4676 15.7972 13.5688Z" fill="#EFDF92" stroke="#FFF8E7" stroke-width="0.607595" stroke-linecap="round" stroke-linejoin="round"/>
<path d="M15.8988 13.1643C15.8988 13.1643 16 13.3668 16 13.5694C16 13.6706 15.8988 13.8731 15.8988 13.8731C15.8988 13.8731 15.7975 14.0756 15.6963 14.1768C15.5949 14.2782 15.4937 14.2782 15.3924 14.2782H5.77213C5.67093 14.2782 5.46839 14.2782 5.36706 14.1768C5.26586 14.0756 5.06332 13.6706 5.06332 13.5694C5.06332 13.468 5.06332 13.3668 5.16452 13.1643L10.0253 4.9617C10.0253 4.9617 10.3292 4.6579 10.5317 4.6579C10.8355 4.6579 11.1392 4.9617 11.1392 4.9617L15.8988 13.1643Z" stroke="#B2884D" stroke-width="0.379747"/>
<path d="M10.9371 7.59497H10.0256V11.2405H10.9371V7.59497Z" fill="#B3884D"/>
<path d="M10.9371 12.0511H10.0256V12.9626H10.9371V12.0511Z" fill="#B3884D"/>
</svg>
