<svg width="12" height="12" viewBox="0 0 12 12" fill="none" xmlns="http://www.w3.org/2000/svg">
<path d="M6 8.2286L2.5714 11.5714L0.428497 9.4286L3.8571 6.00002L0.428497 2.57145L2.5714 0.428589L6 3.85716L9.4285 0.428589L11.5714 2.57145L8.1428 6.00002L11.5714 9.4286L9.4285 11.5714L6 8.2286Z" fill="#E45F57"/>
<path d="M2.5714 0.85714L5.5714 3.85714L6 4.28571L9.4286 0.85714L11.1429 2.57143L8.1429 5.57143L7.7143 6L8.0571 6.34286L11.0571 9.3429L9.3429 11.0571L6.3429 8.0571L6 7.8L5.6571 8.1429L2.5714 11.1429L0.857101 9.4286L3.8571 6.42857L4.2857 6L3.9429 5.65714L0.857101 2.57143L2.5714 0.85714ZM2.5714 0L2.1429 0.42857L0.4286 2.14286L0 2.57143L0.4286 3L3.4286 6L0.4286 9L0 9.4286L0.4286 9.8571L2.1429 11.5714L2.5714 12L3 11.5714L6 8.5714L9 11.5714L9.4286 12L9.8571 11.5714L11.5714 9.8571L12 9.4286L11.5714 9L8.5714 6L11.5714 3L12 2.57143L11.5714 2.14286L9.8571 0.42857L9.4286 0L9 0.42857L6 3.42857L3 0.42857L2.5714 0Z" fill="#CB5238"/>
</svg>
